/* XPM */
static const char * ColorIcon_xpm[] = {
"32 32 361 2",
"  	c None",
". 	c #8F0000",
"+ 	c #991010",
"@ 	c #990F0F",
"# 	c #980D0D",
"$ 	c #980C0C",
"% 	c #970A0A",
"& 	c #970909",
"* 	c #960707",
"= 	c #950606",
"- 	c #950404",
"; 	c #940101",
"> 	c #920000",
", 	c #910000",
"' 	c #8B0000",
") 	c #F47D7D",
"! 	c #FFABAB",
"~ 	c #FFA4A4",
"{ 	c #FFA0A0",
"] 	c #FF999A",
"^ 	c #FF9294",
"/ 	c #FF8B8B",
"( 	c #FF8484",
"_ 	c #FF7B7D",
": 	c #FF7474",
"< 	c #FF6B6B",
"[ 	c #FF6161",
"} 	c #FF5858",
"| 	c #FF4E4E",
"1 	c #FF3E3E",
"2 	c #FF0101",
"3 	c #FF0000",
"4 	c #A60000",
"5 	c #C93D3D",
"6 	c #FFADAD",
"7 	c #FFA9A9",
"8 	c #FFA3A3",
"9 	c #FF9E9D",
"0 	c #FF9797",
"a 	c #FF908F",
"b 	c #FF8888",
"c 	c #FF8382",
"d 	c #FF7979",
"e 	c #FF7071",
"f 	c #FF6768",
"g 	c #FF5E5E",
"h 	c #FF5555",
"i 	c #FF4C4C",
"j 	c #FF2A2A",
"k 	c #D70000",
"l 	c #FFACAC",
"m 	c #FFA6A6",
"n 	c #FFA1A1",
"o 	c #FF9A9A",
"p 	c #FF9595",
"q 	c #FF8D8E",
"r 	c #FF8785",
"s 	c #FF7E7E",
"t 	c #FF7676",
"u 	c #FF6C6C",
"v 	c #FF6464",
"w 	c #FF5C5C",
"x 	c #FF5152",
"y 	c #FF3F3F",
"z 	c #FF1515",
"A 	c #FA0000",
"B 	c #EF7F7F",
"C 	c #FFAEAE",
"D 	c #FFAAAA",
"E 	c #FF9E9F",
"F 	c #FF9898",
"G 	c #FF9191",
"H 	c #FF8A8A",
"I 	c #FF8384",
"J 	c #FF7272",
"K 	c #FF5658",
"L 	c #FF4747",
"M 	c #FF1F1F",
"N 	c #FF0404",
"O 	c #C30000",
"P 	c #C33D3D",
"Q 	c #FFB0B0",
"R 	c #FFA2A2",
"S 	c #FF9D9D",
"T 	c #FF9696",
"U 	c #FF8F8F",
"V 	c #FF8080",
"W 	c #FF7878",
"X 	c #FF6F70",
"Y 	c #FF6767",
"Z 	c #FF5D5D",
"` 	c #FF4141",
" .	c #FF1F21",
"..	c #FF0709",
"+.	c #EF0000",
"@.	c #FFA4A5",
"#.	c #FF9F9F",
"$.	c #FF9999",
"%.	c #FF9292",
"&.	c #FF8585",
"*.	c #FF7D7D",
"=.	c #FF7675",
"-.	c #FF5252",
";.	c #FF3234",
">.	c #FF1616",
",.	c #FF0C0C",
"'.	c #FF0907",
").	c #FF0303",
"!.	c #A90000",
"~.	c #037B00",
"{.	c #008B00",
"].	c #E97F7F",
"^.	c #FFA7A7",
"/.	c #FF9E9E",
"(.	c #FF9897",
"_.	c #FF9190",
":.	c #FF8989",
"<.	c #FF8282",
"[.	c #FF6D6D",
"}.	c #FF5353",
"|.	c #FF3838",
"1.	c #FF1516",
"2.	c #FF1010",
"3.	c #FF0A0C",
"4.	c #FF0707",
"5.	c #DD0000",
"6.	c #416B01",
"7.	c #00BA0F",
"8.	c #009601",
"9.	c #B43434",
"0.	c #FFA5A5",
"a.	c #FF6868",
"b.	c #FF5553",
"c.	c #FF2B2D",
"d.	c #FF2424",
"e.	c #FF1E1E",
"f.	c #FF1919",
"g.	c #FF0F10",
"h.	c #FF0A0A",
"i.	c #FF0606",
"j.	c #FD0000",
"k.	c #871900",
"l.	c #00B810",
"m.	c #00AA07",
"n.	c #A70000",
"o.	c #A00000",
"p.	c #1B9D0C",
"q.	c #00B70F",
"r.	c #5DCF68",
"s.	c #7DE088",
"t.	c #79DF84",
"u.	c #75DE7F",
"v.	c #70DD7B",
"w.	c #6BDA76",
"x.	c #5CD768",
"y.	c #30CC3F",
"z.	c #2ACA3B",
"A.	c #27C938",
"B.	c #22C834",
"C.	c #1EC731",
"D.	c #1BC52D",
"E.	c #18C32A",
"F.	c #15C227",
"G.	c #10C124",
"H.	c #0CC01F",
"I.	c #0ABE1E",
"J.	c #06BD19",
"K.	c #03BC16",
"L.	c #01BC15",
"M.	c #00BB12",
"N.	c #009803",
"O.	c #27AF34",
"P.	c #7FE18A",
"Q.	c #7AE085",
"R.	c #76DE83",
"S.	c #72DD7E",
"T.	c #6FDB7A",
"U.	c #64DA72",
"V.	c #37CE47",
"W.	c #2DCB3D",
"X.	c #28CA3B",
"Y.	c #25C937",
"Z.	c #21C734",
"`.	c #1EC631",
" +	c #16C42A",
".+	c #13C227",
"++	c #10C122",
"@+	c #0DC01F",
"#+	c #09BE1C",
"$+	c #06BC19",
"%+	c #00BC15",
"&+	c #00AE0C",
"*+	c #7BDF87",
"=+	c #7EE089",
"-+	c #75DE80",
";+	c #70DD7D",
">+	c #6BDB78",
",+	c #42D152",
"'+	c #2ECB3F",
")+	c #2BCA3D",
"!+	c #28CA3A",
"~+	c #24C937",
"{+	c #1EC630",
"]+	c #19C52D",
"^+	c #16C32A",
"/+	c #13C225",
"(+	c #0FC022",
"_+	c #0CBF1E",
":+	c #06BD18",
"<+	c #00BA12",
"[+	c #008B09",
"}+	c #0947A0",
"|+	c #0938AC",
"1+	c #0634A6",
"2+	c #5CCE68",
"3+	c #7AE087",
"4+	c #78DF83",
"5+	c #72DE7F",
"6+	c #70DD7A",
"7+	c #51D460",
"8+	c #31CD42",
"9+	c #2ECC3F",
"0+	c #2BCA3B",
"a+	c #25C835",
"b+	c #21C732",
"c+	c #1EC62E",
"d+	c #19C42D",
"e+	c #12C125",
"f+	c #0FC021",
"g+	c #07BD1C",
"h+	c #04BC18",
"i+	c #01BC16",
"j+	c #009D06",
"k+	c #0C7287",
"l+	c #2259D2",
"m+	c #22AC31",
"n+	c #7EE189",
"o+	c #7EE088",
"p+	c #7ADF85",
"q+	c #74DE7F",
"r+	c #6CDC79",
"s+	c #58D765",
"t+	c #34CE44",
"u+	c #2ECB3E",
"v+	c #27CA38",
"w+	c #24C835",
"x+	c #21C731",
"y+	c #1CC630",
"z+	c #18C42B",
"A+	c #15C328",
"B+	c #12C124",
"C+	c #0DC021",
"D+	c #0ABF1E",
"E+	c #09BD1B",
"F+	c #00B10F",
"G+	c #008332",
"H+	c #245CD4",
"I+	c #1041B7",
"J+	c #1B67B8",
"K+	c #184CC5",
"L+	c #7295DF",
"M+	c #96B3F3",
"N+	c #94B0F1",
"O+	c #90AEF1",
"P+	c #8BABF0",
"Q+	c #87A7EE",
"R+	c #7B9FEC",
"S+	c #5583E4",
"T+	c #5180E3",
"U+	c #4C7DE3",
"V+	c #487AE1",
"W+	c #4476E0",
"X+	c #4174DE",
"Y+	c #3D70DE",
"Z+	c #3A6DDD",
"`+	c #356BDC",
" @	c #3267DB",
".@	c #3065D9",
"+@	c #2D62D8",
"@@	c #2A60D8",
"#@	c #275ED7",
"$@	c #1F58D1",
"%@	c #0737AA",
"&@	c #426BC8",
"*@	c #99B4F4",
"=@	c #95B2F2",
"-@	c #92B0F2",
";@	c #8EACF1",
">@	c #8AAAF0",
",@	c #83A4EE",
"'@	c #5C8AE7",
")@	c #5382E4",
"!@	c #4F7FE3",
"~@	c #4C7DE2",
"{@	c #4779E2",
"]@	c #3F74DE",
"^@	c #386CDD",
"/@	c #356BDB",
"(@	c #3167DA",
"_@	c #2E64D9",
":@	c #2B61D8",
"<@	c #2860D7",
"[@	c #255DD5",
"}@	c #0D3EB3",
"|@	c #92AFF0",
"1@	c #97B4F3",
"2@	c #94B1F2",
"3@	c #8DACF1",
"4@	c #89A9EF",
"5@	c #6890E9",
"6@	c #5684E5",
"7@	c #5382E5",
"8@	c #4F7EE3",
"9@	c #4B7BE3",
"0@	c #4779E1",
"a@	c #4476DF",
"b@	c #3F72DE",
"c@	c #386DDC",
"d@	c #3569DB",
"e@	c #3167D9",
"f@	c #2860D8",
"g@	c #1849C1",
"h@	c #7597E0",
"i@	c #99B5F4",
"j@	c #97B2F3",
"k@	c #94B0F2",
"l@	c #8FADF1",
"m@	c #7299EC",
"n@	c #5885E7",
"o@	c #5583E5",
"p@	c #5282E4",
"q@	c #4B7AE2",
"r@	c #4778E0",
"s@	c #4274DF",
"t@	c #3E72DE",
"u@	c #3B6FDD",
"v@	c #376CDC",
"w@	c #3468DB",
"x@	c #3067DA",
"y@	c #2D64D8",
"z@	c #2156CF",
"A@	c #0635A7",
"B@	c #456DCA",
"C@	c #8FAEF1",
"D@	c #89A9F0",
"E@	c #799DEC",
"F@	c #5C89E7",
"G@	c #5885E6",
"H@	c #4C7EE3",
"I@	c #497AE2",
"J@	c #4778E1",
"K@	c #3D71DE",
"L@	c #3A6FDD",
"M@	c #3268DA",
"N@	c #2D62D9",
"O@	c #2860D6",
"P@	c #0C3BB0",
"Q@	c #0D3DB0",
"R@	c #0F3EB2",
"S@	c #0D3EB2",
"T@	c #0A3AAE",
"                                                                ",
"                                                                ",
"                                                                ",
"                                                                ",
"                                                                ",
"                . + @ # $ % & * = - - ; > > , ' ' ' ' ' ' ' ' ' ",
"                ) ! ~ { ] ^ / ( _ : < [ } | 1 2 3 3 3 3 3 3 4   ",
"              5 6 7 8 9 0 a b c d e f g h i j 2 3 3 3 3 3 k     ",
"              ~ l m n o p q r s t u v w x y z 2 3 3 3 3 A       ",
"            B C D 8 E F G H I _ J < [ K L M N 3 3 3 3 3 O       ",
"          P Q l m R S T U b V W X Y Z `  ...N 3 3 3 3 +.        ",
"          m C D @.#.$.%./ &.*.=.u -.;.>.,.'.).3 3 3 3 !.~.{.{.  ",
"        ].Q l ^.8 /.(._.:.<.[.}.|. .1.2.3.4.).3 3 3 5.6.7.8.    ",
"      9.0.6 D n T :.d a.b.1 c.d.e.f.z g.h.i.).3 3 j.k.l.m.      ",
"    ' ' ' ' ' ' ' ' ' ' ' ' ' ' ' ' ' n.!.!.!.!.!.o.p.q.        ",
"          r.s.t.u.v.w.x.y.z.A.B.C.D.E.F.G.H.I.J.K.L.M.N.        ",
"        O.P.Q.R.S.T.U.V.W.X.Y.Z.`.D. +.+++@+#+$+K.%+&+          ",
"        *+=+t.-+;+>+,+'+)+!+~+Z.{+]+^+/+(+_+#+:+K.<+[+}+|+1+    ",
"      2+P.3+4+5+6+7+8+9+0+!+a+b+c+d+^+e+f+I.g+h+i+j+k+l+|+      ",
"    m+n+o+p+q+r+s+t+8+u+z.v+w+x+y+z+A+B+C+D+E+h+F+G+H+I+        ",
"  {.{.{.{.{.{.{.{.{.{.{.{.{.{.{.{.{.{.{.{.{.{.{.{.J+K+          ",
"        L+M+N+O+P+Q+R+S+T+U+V+W+X+Y+Z+`+ @.@+@@@#@$@%@          ",
"      &@*@=@-@;@>@,@'@)@!@~@{@W+]@Y+^@/@(@_@:@<@[@}@            ",
"      |@1@2@O+3@4@5@6@7@8@9@0@a@b@Y+c@d@e@_@:@f@g@              ",
"    h@i@j@k@l@P+m@n@o@p@8@q@r@s@t@u@v@w@x@y@:@z@A@              ",
"  B@1@1@=@C@D@E@F@G@o@T+H@I@J@s@K@L@v@M@.@N@O@P@                ",
"1+1+1+1+1+1+1+1+1+1+1+1+1+1+1+1+1+1+1+Q@R@S@T@                  ",
"                                                                ",
"                                                                ",
"                                                                ",
"                                                                ",
"                                                                "};
